<svg width="32" height="32" viewBox="0 0 32 32" fill="none" xmlns="http://www.w3.org/2000/svg">
<path d="M29.3334 22.56V26.56C29.3349 26.9313 29.2588 27.2988 29.1101 27.6391C28.9613 27.9793 28.7431 28.2847 28.4695 28.5358C28.1959 28.7868 27.8728 28.9779 27.5211 29.0969C27.1693 29.2159 26.7966 29.26 26.4267 29.2266C22.3239 28.7808 18.3827 27.3788 14.9201 25.1333C11.6985 23.0862 8.96719 20.3548 6.92007 17.1333C4.66671 13.6549 3.2644 9.69461 2.82674 5.57328C2.79342 5.20457 2.83724 4.83296 2.95541 4.48212C3.07357 4.13127 3.2635 3.80887 3.51309 3.53545C3.76269 3.26202 4.06648 3.04356 4.40513 2.89398C4.74378 2.7444 5.10986 2.66697 5.48007 2.66662H9.48007C10.1271 2.66025 10.7545 2.88939 11.2451 3.31133C11.7357 3.73327 12.0562 4.31921 12.1467 4.95995C12.3156 6.24004 12.6287 7.49692 13.0801 8.70662C13.2595 9.18385 13.2983 9.7025 13.1919 10.2011C13.0856 10.6997 12.8386 11.1574 12.4801 11.52L10.7867 13.2133C12.6848 16.5513 15.4487 19.3152 18.7867 21.2133L20.4801 19.52C20.8426 19.1615 21.3003 18.9144 21.7989 18.8081C22.2975 18.7017 22.8162 18.7406 23.2934 18.9199C24.5031 19.3714 25.76 19.6845 27.0401 19.8533C27.6878 19.9447 28.2793 20.2709 28.7021 20.7699C29.125 21.269 29.3496 21.9061 29.3334 22.56Z" stroke="#6BB6E4" stroke-width="2" stroke-linecap="round" stroke-linejoin="round"/>
</svg>
