<svg width="25" height="25" viewBox="0 0 25 25" fill="none" xmlns="http://www.w3.org/2000/svg">
<path fill-rule="evenodd" clip-rule="evenodd" d="M16.5482 9.80256C16.5482 13.5677 13.5071 16.6051 9.77407 16.6051C6.041 16.6051 2.99991 13.5677 2.99991 9.80256C2.99991 6.0374 6.041 3 9.77407 3C13.5071 3 16.5482 6.0374 16.5482 9.80256ZM15.0138 18.079C13.4995 19.0453 11.702 19.6051 9.77407 19.6051C4.37595 19.6051 -9.15527e-05 15.2164 -9.15527e-05 9.80256C-9.15527e-05 4.38876 4.37595 0 9.77407 0C15.1722 0 19.5482 4.38876 19.5482 9.80256C19.5482 12.1971 18.6921 14.3912 17.2701 16.0936L23.4843 22.3511L21.3703 24.4797L15.0138 18.079Z" fill="#575757"/>
</svg>
