<svg width="22" height="21" viewBox="0 0 22 21" fill="none" xmlns="http://www.w3.org/2000/svg">
<path fill-rule="evenodd" clip-rule="evenodd" d="M1.29674 18.0175C0.903239 18.4051 0.898391 19.0382 1.28591 19.4317C1.67344 19.8252 2.30658 19.8301 2.70009 19.4425L10.845 11.4214L19.3 19.7478C19.6935 20.1353 20.3267 20.1305 20.7142 19.737C21.1017 19.3435 21.0969 18.7103 20.7034 18.3228L12.4249 10.1703L20.7034 2.01775C21.0969 1.63023 21.1017 0.997081 20.7142 0.603576C20.3267 0.210071 19.6935 0.20522 19.3 0.592741L11.155 8.61392L2.70009 0.287501C2.30658 -0.100023 1.67344 -0.0951746 1.28591 0.298329C0.898391 0.69183 0.903238 1.32498 1.29674 1.7125L9.57507 9.86502L1.29674 18.0175Z" fill="white"/>
</svg>
