<svg width="14" height="19" viewBox="0 0 14 19" fill="none" xmlns="http://www.w3.org/2000/svg">
<path d="M7 18.261C6.81703 18.058 6.57292 17.7823 6.28641 17.4469C5.63684 16.6866 4.7717 15.6224 3.90765 14.4058C3.04253 13.1877 2.18527 11.8262 1.54599 10.4705C0.903356 9.1078 0.5 7.79041 0.5 6.65C0.5 3.2735 3.38167 0.5 7 0.5C10.6183 0.5 13.5 3.2735 13.5 6.65C13.5 7.79041 13.0966 9.1078 12.454 10.4705C11.8147 11.8262 10.9575 13.1877 10.0923 14.4058C9.2283 15.6224 8.36316 16.6866 7.71359 17.4469C7.42708 17.7823 7.18297 18.058 7 18.261ZM4 6.65C4 8.261 5.36833 9.525 7 9.525C8.63167 9.525 10 8.261 10 6.65C10 5.039 8.63167 3.775 7 3.775C5.36833 3.775 4 5.039 4 6.65Z" stroke="#25B072"/>
</svg>
