<svg width="24" height="28" viewBox="0 0 24 28" fill="none" xmlns="http://www.w3.org/2000/svg">
<path fill-rule="evenodd" clip-rule="evenodd" d="M7.77624 3C7.77624 2.44771 8.22395 2 8.77624 2H15.2217C15.774 2 16.2217 2.44772 16.2217 3V7.49854H7.77624V3ZM5.77624 9.49854V10.7523C5.77624 11.3045 6.22395 11.7523 6.77624 11.7523C7.32852 11.7523 7.77624 11.3045 7.77624 10.7523V9.49854H16.2217V10.7523C16.2217 11.3045 16.6694 11.7523 17.2217 11.7523C17.774 11.7523 18.2217 11.3045 18.2217 10.7523V9.49854H20.616L21.9999 25.003H2.00016L3.38404 9.49854H5.77624ZM5.77624 7.49854V3C5.77624 1.34314 7.11938 0 8.77624 0H15.2217C16.8785 0 18.2217 1.34315 18.2217 3V7.49854H20.616C21.6517 7.49854 22.516 8.28917 22.6081 9.32073L23.992 24.8252C24.0964 25.9953 23.1747 27.003 21.9999 27.003H2.00016C0.825401 27.003 -0.0963629 25.9953 0.00807678 24.8252L1.39196 9.32073C1.48403 8.28917 2.34837 7.49854 3.38404 7.49854H5.77624Z" fill="#6BB6E4"/>
</svg>
