<svg width="30" height="30" viewBox="0 0 30 30" fill="none" xmlns="http://www.w3.org/2000/svg">
<path d="M7.5 16.25V7.5C7.5 5.42894 9.17894 3.75 11.25 3.75H17.5M27.5 17.5V10.625V17.5Z" stroke="#6BB6E4" stroke-width="2" stroke-linecap="round" stroke-linejoin="round"/>
<path d="M24.9902 5V8.75M21.2402 5H24.9902H21.2402ZM28.7402 5H24.9902H28.7402ZM24.9902 5V1.25V5Z" stroke="#6BB6E4" stroke-width="2" stroke-linecap="round" stroke-linejoin="round"/>
<path d="M15 26.25H7.5C4.73857 26.25 2.5 24.0114 2.5 21.25C2.5 18.4886 4.73857 16.25 7.5 16.25H21.25H22.5C19.7386 16.25 17.5 18.4886 17.5 21.25C17.5 24.0114 19.7386 26.25 22.5 26.25C25.2614 26.25 27.5 24.0114 27.5 21.25V17.5" stroke="#6BB6E4" stroke-width="2" stroke-linecap="round" stroke-linejoin="round"/>
</svg>
