<svg width="32" height="32" viewBox="0 0 32 32" fill="none" xmlns="http://www.w3.org/2000/svg">
<path d="M4 27.2V4.8C4 4.35817 4.35817 4 4.8 4H27.2C27.6419 4 28 4.35817 28 4.8V27.2C28 27.6419 27.6419 28 27.2 28H4.8C4.35817 28 4 27.6419 4 27.2Z" stroke="#6BB6E4" stroke-width="2"/>
<path d="M16 21.8546V24.6666M20 11.3333C19.0867 10.42 17.4783 9.78471 16 9.74494L20 11.3333ZM12 20C12.8593 21.1457 14.4571 21.7992 16 21.8546L12 20ZM16 9.74494C14.2412 9.69761 12.6667 10.4933 12.6667 12.6667C12.6667 16.6666 20 14.6666 20 18.6666C20 20.948 18.0483 21.9282 16 21.8546V9.74494ZM16 9.74494V7.33331V9.74494Z" stroke="#6BB6E4" stroke-width="2" stroke-linecap="round" stroke-linejoin="round"/>
</svg>
