<svg width="20" height="20" viewBox="0 0 20 20" fill="none" xmlns="http://www.w3.org/2000/svg">
<path d="M14.1667 1.66669H5.83342C3.53223 1.66669 1.66675 3.53217 1.66675 5.83335V14.1667C1.66675 16.4679 3.53223 18.3334 5.83342 18.3334H14.1667C16.4679 18.3334 18.3334 16.4679 18.3334 14.1667V5.83335C18.3334 3.53217 16.4679 1.66669 14.1667 1.66669Z" fill="#575757"/>
<path d="M13.3333 9.47495C13.4361 10.1685 13.3176 10.8768 12.9947 11.4991C12.6718 12.1215 12.1609 12.6261 11.5346 12.9413C10.9083 13.2566 10.1986 13.3663 9.50641 13.2549C8.81419 13.1435 8.17472 12.8167 7.67895 12.3209C7.18318 11.8251 6.85636 11.1857 6.74497 10.4935C6.63359 9.80124 6.74331 9.09152 7.05852 8.46526C7.37374 7.83899 7.87841 7.32806 8.50074 7.00515C9.12307 6.68223 9.83138 6.56377 10.5249 6.66661C11.2324 6.77152 11.8873 7.10117 12.393 7.60687C12.8987 8.11257 13.2283 8.76751 13.3333 9.47495Z" stroke="white" stroke-linecap="round" stroke-linejoin="round"/>
<path d="M14.5833 5.41669H14.5933" stroke="white" stroke-linecap="round" stroke-linejoin="round"/>
</svg>
