<svg width="10" height="15" viewBox="0 0 10 15" fill="none" xmlns="http://www.w3.org/2000/svg">
<path d="M5 13.8414C4.88929 13.7073 4.75777 13.5455 4.61046 13.3598C4.14804 12.7769 3.53225 11.9611 2.9174 11.0288C2.30164 10.0951 1.69276 9.05336 1.23926 8.01774C0.782994 6.97578 0.5 5.97563 0.5 5.11539C0.5 2.55264 2.52255 0.5 5 0.5C7.47745 0.5 9.5 2.55264 9.5 5.11539C9.5 5.97563 9.21701 6.97578 8.76074 8.01774C8.30724 9.05336 7.69836 10.0951 7.0826 11.0288C6.46775 11.9611 5.85196 12.7769 5.38954 13.3598C5.24223 13.5455 5.1107 13.7073 5 13.8414ZM2.71429 5.11539C2.71429 6.38917 3.72745 7.44231 5 7.44231C6.27255 7.44231 7.28571 6.38917 7.28571 5.11539C7.28571 3.8416 6.27255 2.78846 5 2.78846C3.72745 2.78846 2.71429 3.8416 2.71429 5.11539Z" stroke="#6BB6E4"/>
</svg>
