<svg width="17" height="16" viewBox="0 0 17 16" fill="none" xmlns="http://www.w3.org/2000/svg">
<path d="M1.28715 14.7797C1.37304 15.0066 1.59836 15.15 1.84171 15.15C2.08522 15.15 2.31035 15.0065 2.39636 14.7798L2.39638 14.7797C3.22841 12.5826 5.36559 11.0295 7.83055 10.7894V14.0242C7.83055 14.4146 7.94699 14.6997 8.13295 14.8876C8.31753 15.0741 8.55606 15.1499 8.77271 15.1499C9.08562 15.1499 9.38548 15.0036 9.66287 14.7447L15.6313 9.17414L15.6313 9.17412C15.9644 8.86318 16.15 8.44592 16.15 7.99989V7.99985C16.1499 7.55397 15.9642 7.1366 15.6312 6.82575L9.66301 1.25545C9.38563 0.996441 9.08565 0.85 8.77271 0.85C8.55611 0.85 8.31759 0.925824 8.133 1.11229C7.94703 1.30015 7.83055 1.58524 7.83055 1.97572V5.27068C6.02855 5.41602 4.35402 6.14605 3.06608 7.36066C1.63855 8.70687 0.85 10.4944 0.85 12.3932C0.85 13.2107 0.997037 14.0138 1.28715 14.7797ZM1.28715 14.7797L1.42744 14.7266L1.28716 14.7797C1.28716 14.7797 1.28716 14.7797 1.28715 14.7797ZM8.41508 9.63716L8.41353 9.63718C6.81972 9.65371 5.29621 10.124 4.00862 10.9982L4.09288 11.1223L4.00862 10.9982C3.22619 11.5295 2.56647 12.184 2.0544 12.9319C2.03743 12.7535 2.02891 12.5738 2.02891 12.3932C2.02891 9.11533 4.88939 6.40116 8.42637 6.36442C8.73961 6.36121 9.00946 6.12079 9.00946 5.80428V2.21591L14.8051 7.62516C14.9133 7.72619 14.9711 7.85877 14.9711 7.99991C14.971 8.14106 14.9132 8.27383 14.805 8.37488L9.00934 13.7843V10.1972C9.00934 10.0442 8.94369 9.89963 8.83055 9.79533C8.71959 9.69296 8.57191 9.63706 8.41989 9.63706L8.41508 9.63716Z" fill="#6BB6E4" stroke="#6BB6E4" stroke-width="0.3"/>
</svg>
