<svg width="18" height="18" viewBox="0 0 18 18" fill="none" xmlns="http://www.w3.org/2000/svg">
<path d="M7.39087 9.80533C7.73638 10.2677 8.17719 10.6503 8.68341 10.9271C9.18962 11.204 9.74939 11.3686 10.3248 11.4099C10.9001 11.4511 11.4776 11.368 12.0181 11.1662C12.5585 10.9644 13.0493 10.6486 13.4571 10.2402L15.8707 7.82417C16.6035 7.06472 17.009 6.04755 16.9998 4.99175C16.9907 3.93595 16.5676 2.926 15.8217 2.17941C15.0759 1.43282 14.067 1.00933 13.0122 1.00015C11.9575 0.990978 10.9413 1.39685 10.1826 2.13035L8.79882 3.5075" stroke="#6BB6E4" stroke-width="1.5" stroke-linecap="round" stroke-linejoin="round"/>
<path d="M10.6091 8.19538C10.2636 7.733 9.82278 7.35042 9.31656 7.07358C8.81035 6.79673 8.25058 6.6321 7.67522 6.59085C7.09985 6.54961 6.52236 6.63271 5.9819 6.83451C5.44144 7.03632 4.95066 7.35212 4.54285 7.76049L2.12922 10.1765C1.39645 10.936 0.990987 11.9532 1.00015 13.009C1.00932 14.0648 1.43238 15.0747 2.17823 15.8213C2.92407 16.5679 3.93302 16.9914 4.98776 17.0006C6.0425 17.0097 7.05865 16.6039 7.81734 15.8704L9.19311 14.4932" stroke="#6BB6E4" stroke-width="1.5" stroke-linecap="round" stroke-linejoin="round"/>
</svg>
