<svg width="22" height="22" viewBox="0 0 22 22" fill="none" xmlns="http://www.w3.org/2000/svg">
<path d="M18.4837 6.27006C15.851 2.20006 10.4758 0.990061 6.30727 3.52006C2.24845 6.05006 0.93208 11.5501 3.56482 15.6201L3.78422 15.9501L2.90664 19.2501L6.19757 18.3701L6.52666 18.5901C7.95273 19.3601 9.4885 19.8001 11.0243 19.8001C12.6697 19.8001 14.3152 19.3601 15.7413 18.4801C19.8001 15.8401 21.0068 10.4501 18.4837 6.27006ZM16.1801 14.7401C15.7413 15.4001 15.1928 15.8401 14.4249 15.9501C13.9861 15.9501 13.4376 16.1701 11.2437 15.2901C9.3788 14.4101 7.84304 12.9801 6.74606 11.3301C6.08787 10.5601 5.75878 9.57006 5.64908 8.58006C5.64908 7.70006 5.97817 6.93006 6.52666 6.38006C6.74606 6.16006 6.96545 6.05006 7.18485 6.05006H7.73334C7.95273 6.05006 8.17213 6.05006 8.28183 6.49006C8.50122 7.04006 9.04971 8.36006 9.04971 8.47006C9.15941 8.58006 9.15941 8.80006 9.04971 8.91006C9.15941 9.13006 9.04971 9.35006 8.94001 9.46006C8.83032 9.57006 8.72062 9.79006 8.61092 9.90006C8.39152 10.0101 8.28183 10.2301 8.39152 10.4501C8.83031 11.1101 9.3788 11.7701 9.92729 12.3201C10.5855 12.8701 11.2437 13.3101 12.0115 13.6401C12.2309 13.7501 12.4503 13.7501 12.56 13.5301C12.6697 13.3101 13.2182 12.7601 13.4376 12.5401C13.657 12.3201 13.7667 12.3201 13.9861 12.4301L15.7413 13.3101C15.9607 13.4201 16.1801 13.5301 16.2898 13.6401C16.3995 13.9701 16.3995 14.4101 16.1801 14.7401Z" fill="#575757"/>
</svg>
